<svg width="356" height="86" viewBox="0 0 356 86" fill="none" xmlns="http://www.w3.org/2000/svg">
<path d="M354.763 6.40637C355.036 6.44557 355.289 6.25576 355.328 5.98241C355.368 5.70907 355.178 5.4557 354.904 5.41649L354.763 6.40637ZM0.153988 80.8734C42.2234 88.2405 72.1445 85.3534 96.6951 77.3322C121.229 69.3166 140.372 56.1793 160.848 43.133C181.333 30.081 203.189 17.0933 233.224 9.26705C263.258 1.44071 301.505 -1.23176 354.763 6.40637L354.904 5.41649C301.546 -2.2361 263.162 0.432499 232.971 8.29936C202.781 16.1663 180.818 29.2239 160.311 42.2897C139.794 55.3613 120.771 68.4142 96.3845 76.3817C72.0153 84.3436 42.2632 87.2323 0.326481 79.8884L0.153988 80.8734Z" fill="#EE2E24"/>
</svg>
