<svg width="371" height="322" viewBox="0 0 371 322" fill="none" xmlns="http://www.w3.org/2000/svg">
<path opacity="0.24" d="M176.275 1.64781C155.28 0.0284345 133.896 -1.56973 113.339 2.98433C92.7821 7.53838 72.8263 19.2488 63.7394 37.8752C51.9583 62.0102 60.6704 91.3428 52.425 116.843C47.8922 130.858 38.5436 142.788 30.171 155.029C16.728 174.645 5.22269 196.213 1.32629 219.549C-2.57011 242.885 1.9203 268.428 17.4352 286.608C42.2633 315.793 86.1844 318.649 124.979 319.258L262.307 321.323C280.092 321.591 298.605 321.711 314.686 314.251C340.327 302.286 353.459 274.325 361.966 247.835C369.936 223.021 375.459 195.153 363.911 171.725C357.412 158.543 345.949 147.865 341.282 133.949C335.314 115.98 341.862 96.505 341.282 77.617C338.75 -8.02602 234.573 6.13822 176.275 1.64781Z" fill="#DDDCE7"/>
<path d="M233.188 94.5462C233.224 93.891 233.074 93.2391 232.756 92.6651C232.454 92.2876 232.073 91.981 231.639 91.7671C225.984 88.4655 219.708 86.3685 213.204 85.6078C212.145 85.4058 211.052 85.4887 210.036 85.8482C208.621 86.4634 207.914 87.9343 207.242 89.2991L194.726 115.464C194.394 116.171 194.061 116.963 194.394 117.649C194.596 118 194.88 118.298 195.221 118.519C205.5 126.124 218.338 129.421 231.01 127.712C232.787 127.573 234.503 127.003 236.009 126.05C241.667 121.92 237.155 116.63 234.447 112.769C231.314 108.307 233.379 99.9205 233.188 94.5462Z" fill="#B9B7CE"/>
<path d="M233.188 94.5462C233.224 93.891 233.074 93.2391 232.756 92.6651C232.454 92.2876 232.073 91.981 231.639 91.7671C225.984 88.4655 219.708 86.3685 213.204 85.6078C212.145 85.4058 211.052 85.4887 210.036 85.8482C208.621 86.4634 207.914 87.9343 207.242 89.2991L194.726 115.464C194.394 116.171 194.061 116.963 194.394 117.649C194.596 118 194.88 118.298 195.221 118.519C205.5 126.124 218.338 129.421 231.01 127.712C232.787 127.573 234.503 127.003 236.009 126.05C241.667 121.92 237.155 116.63 234.447 112.769C231.314 108.307 233.379 99.9205 233.188 94.5462Z" fill="url(#paint0_linear_254_11916)"/>
<path d="M170.464 98.8041C170.743 98.1767 171.167 97.6243 171.701 97.1917C172.391 96.7963 173.177 96.6004 173.971 96.626C177.924 96.5082 181.88 96.6381 185.816 97.015C188.383 97.1191 190.934 97.4744 193.432 98.0757C195.247 98.5722 196.98 99.3271 198.58 100.317C199.342 100.711 199.974 101.318 200.397 102.064C200.685 102.816 200.787 103.626 200.694 104.426C200.574 107.424 200.419 110.423 200.249 113.414C199.909 119.432 199.485 125.591 197.038 131.093C196.777 131.783 196.363 132.407 195.829 132.917C195.328 133.29 194.755 133.555 194.146 133.695C192.506 134.104 190.823 134.32 189.132 134.338C183.458 134.548 177.778 134.073 172.217 132.924C169.614 132.444 167.08 131.646 164.672 130.548C164.271 130.395 163.926 130.124 163.682 129.77C163.528 129.424 163.467 129.044 163.505 128.667C163.562 124.146 163.755 119.637 164.085 115.139C164.234 113.145 164.142 110.854 164.743 108.938C165.125 107.714 166.058 106.76 166.709 105.67C168.059 103.436 169.212 101.088 170.464 98.8041Z" fill="#B9B7CE"/>
<path d="M170.464 98.8041C170.743 98.1767 171.167 97.6243 171.701 97.1917C172.391 96.7963 173.177 96.6004 173.971 96.626C177.924 96.5082 181.88 96.6381 185.816 97.015C188.383 97.1191 190.934 97.4744 193.432 98.0757C195.247 98.5722 196.98 99.3271 198.58 100.317C199.342 100.711 199.974 101.318 200.397 102.064C200.685 102.816 200.787 103.626 200.694 104.426C200.574 107.424 200.419 110.423 200.249 113.414C199.909 119.432 199.485 125.591 197.038 131.093C196.777 131.783 196.363 132.407 195.829 132.917C195.328 133.29 194.755 133.555 194.146 133.695C192.506 134.104 190.823 134.32 189.132 134.338C183.458 134.548 177.778 134.073 172.217 132.924C169.614 132.444 167.08 131.646 164.672 130.548C164.271 130.395 163.926 130.124 163.682 129.77C163.528 129.424 163.467 129.044 163.505 128.667C163.562 124.146 163.755 119.637 164.085 115.139C164.234 113.145 164.142 110.854 164.743 108.938C165.125 107.714 166.058 106.76 166.709 105.67C168.059 103.436 169.212 101.088 170.464 98.8041Z" fill="url(#paint1_linear_254_11916)"/>
<path d="M238.879 109.566C240.067 109.453 241.347 109.361 242.366 109.983C243.234 110.629 243.887 111.521 244.24 112.543C247.394 119.653 248.833 127.404 248.44 135.172C226.796 137.75 205.008 138.931 183.212 138.708C178.185 138.651 179.677 129.175 181.798 126.29C184.768 122.337 191.91 120.775 196.252 119.219C210.016 114.28 224.331 111.039 238.879 109.566Z" fill="#B9B7CE"/>
<path d="M238.879 109.566C240.067 109.453 241.347 109.361 242.366 109.983C243.234 110.629 243.887 111.521 244.24 112.543C247.394 119.653 248.833 127.404 248.44 135.172C226.796 137.75 205.008 138.931 183.212 138.708C178.185 138.651 179.677 129.175 181.798 126.29C184.768 122.337 191.91 120.775 196.252 119.219C210.016 114.28 224.331 111.039 238.879 109.566Z" fill="url(#paint2_linear_254_11916)"/>
<path d="M116.238 112.452C116.183 112.119 116.208 111.778 116.311 111.457C116.414 111.136 116.592 110.844 116.831 110.605C117.069 110.367 117.361 110.188 117.682 110.085C118.004 109.982 118.345 109.957 118.677 110.012C137.144 108.565 155.643 107.75 174.175 107.566C174.761 107.509 175.351 107.616 175.879 107.877C176.643 108.351 176.841 109.341 176.982 110.225C177.963 116.674 178.95 123.123 179.945 129.572C180.106 130.174 180.057 130.813 179.804 131.382C179.379 132.09 178.439 132.259 177.618 132.344C161.883 134.026 146.065 134.822 130.239 134.727C125.247 134.692 118.812 135.922 116.316 130.59C114.046 125.718 115.806 117.522 116.238 112.452Z" fill="#B9B7CE"/>
<path d="M116.238 112.452C116.183 112.119 116.208 111.778 116.311 111.457C116.414 111.136 116.592 110.844 116.831 110.605C117.069 110.367 117.361 110.188 117.682 110.085C118.004 109.982 118.345 109.957 118.677 110.012C137.144 108.565 155.643 107.75 174.175 107.566C174.761 107.509 175.351 107.616 175.879 107.877C176.643 108.351 176.841 109.341 176.982 110.225C177.963 116.674 178.95 123.123 179.945 129.572C180.106 130.174 180.057 130.813 179.804 131.382C179.379 132.09 178.439 132.259 177.618 132.344C161.883 134.026 146.065 134.822 130.239 134.727C125.247 134.692 118.812 135.922 116.316 130.59C114.046 125.718 115.806 117.522 116.238 112.452Z" fill="url(#paint3_linear_254_11916)"/>
<path d="M134.115 272.884C161.519 274.057 188.94 274.569 216.378 274.418C214.306 277.388 216.109 281.772 219.164 283.71C222.219 285.648 226.03 285.831 229.644 285.923L282.539 287.437C289.801 287.649 297.594 287.712 303.64 283.675C304.884 282.936 305.89 281.856 306.54 280.563C308.293 276.54 304.22 272.516 300.621 269.991L285.77 259.561C278.798 254.674 271.748 249.746 263.849 246.62C252.817 242.271 240.718 241.67 228.866 241.309C201.605 240.517 173.638 239.817 146.462 242.469C137.906 243.212 129.569 245.573 121.895 249.427C117.073 251.825 98.5169 257.206 97.8522 262.418C96.4167 272.827 127.956 272.587 134.115 272.884Z" fill="url(#paint4_linear_254_11916)"/>
<path d="M178.207 79.988C180.43 76.5982 179.485 72.0478 176.095 69.8245C172.705 67.6012 168.155 68.5468 165.931 71.9367L122.828 137.655C120.605 141.045 121.55 145.595 124.94 147.819C128.33 150.042 132.88 149.096 135.104 145.707L178.207 79.988Z" fill="#B9B7CE"/>
<path d="M206.043 75.7761C203.634 72.5152 199.038 71.8243 195.777 74.2328C192.516 76.6413 191.826 81.2372 194.234 84.4981L240.928 147.716C243.336 150.977 247.932 151.668 251.193 149.259C254.454 146.851 255.145 142.255 252.736 138.994L206.043 75.7761Z" fill="#B9B7CE"/>
<path d="M178.207 79.988C180.43 76.5982 179.485 72.0478 176.095 69.8245C172.705 67.6012 168.155 68.5468 165.931 71.9367L122.828 137.655C120.605 141.045 121.55 145.595 124.94 147.819C128.33 150.042 132.88 149.096 135.104 145.707L178.207 79.988Z" fill="url(#paint5_linear_254_11916)"/>
<path d="M206.043 75.7761C203.634 72.5152 199.038 71.8243 195.777 74.2328C192.516 76.6413 191.826 81.2372 194.234 84.4981L240.928 147.716C243.336 150.977 247.932 151.668 251.193 149.259C254.454 146.851 255.145 142.255 252.736 138.994L206.043 75.7761Z" fill="url(#paint6_linear_254_11916)"/>
<path d="M240.972 259.199H123.521L109.484 151.684H260.405L240.972 259.199Z" fill="#B9B7CE"/>
<path d="M260.405 151.67L240.966 259.192H123.529L109.492 151.67H260.405Z" fill="url(#paint7_linear_254_11916)"/>
<path d="M168.864 188.384V259.191H148.965V188.384C149.034 185.794 150.111 183.334 151.968 181.526C153.824 179.718 156.313 178.707 158.904 178.707C161.495 178.707 163.984 179.718 165.84 181.526C167.696 183.334 168.774 185.794 168.843 188.384H168.864Z" fill="#B9B7CE"/>
<path d="M212.044 188.384V259.191H192.166V188.384C192.235 185.794 193.313 183.334 195.169 181.526C197.025 179.718 199.514 178.707 202.105 178.707C204.696 178.707 207.185 179.718 209.041 181.526C210.897 183.334 211.975 185.794 212.044 188.384Z" fill="#B9B7CE"/>
<path d="M267.13 286.402C299.038 286.402 324.904 260.536 324.904 228.628C324.904 196.72 299.038 170.854 267.13 170.854C235.222 170.854 209.355 196.72 209.355 228.628C209.355 260.536 235.222 286.402 267.13 286.402Z" fill="white"/>
<path d="M258.142 262.686C256.068 262.685 254.079 261.861 252.612 260.395L227.296 235.108C225.897 233.627 225.132 231.66 225.161 229.624C225.19 227.588 226.012 225.644 227.453 224.205C228.893 222.766 230.838 221.945 232.874 221.917C234.91 221.889 236.876 222.656 238.356 224.055L257.753 243.452L297.353 198.039C298.019 197.236 298.839 196.575 299.765 196.094C300.69 195.613 301.702 195.322 302.742 195.238C303.781 195.154 304.827 195.279 305.818 195.605C306.809 195.932 307.724 196.453 308.51 197.138C309.296 197.823 309.938 198.659 310.396 199.596C310.854 200.533 311.121 201.552 311.18 202.593C311.239 203.634 311.089 204.677 310.738 205.659C310.388 206.642 309.845 207.544 309.141 208.314L264.025 260.035C263.318 260.846 262.45 261.502 261.476 261.961C260.502 262.42 259.444 262.672 258.368 262.701C258.292 262.701 258.217 262.697 258.142 262.686Z" fill="#34A853"/>
<path d="M264.492 130.951H106.041C98.9994 130.951 93.291 136.66 93.291 143.701V150.589C93.291 157.63 98.9994 163.339 106.041 163.339H264.492C271.534 163.339 277.242 157.63 277.242 150.589V143.701C277.242 136.66 271.534 130.951 264.492 130.951Z" fill="#B9B7CE"/>
<path d="M264.492 130.951H106.041C98.9994 130.951 93.291 136.66 93.291 143.701V150.589C93.291 157.63 98.9994 163.339 106.041 163.339H264.492C271.534 163.339 277.242 157.63 277.242 150.589V143.701C277.242 136.66 271.534 130.951 264.492 130.951Z" fill="url(#paint8_linear_254_11916)"/>
<path d="M200.382 86.1519C203.6 86.1519 206.209 83.5431 206.209 80.325C206.209 77.1068 203.6 74.498 200.382 74.498C197.163 74.498 194.555 77.1068 194.555 80.325C194.555 83.5431 197.163 86.1519 200.382 86.1519Z" fill="url(#paint9_linear_254_11916)"/>
<path d="M172.096 82.0523C175.315 82.0523 177.923 79.4435 177.923 76.2254C177.923 73.0072 175.315 70.3984 172.096 70.3984C168.878 70.3984 166.27 73.0072 166.27 76.2254C166.27 79.4435 168.878 82.0523 172.096 82.0523Z" fill="url(#paint10_linear_254_11916)"/>
<defs>
<linearGradient id="paint0_linear_254_11916" x1="212.094" y1="91.8095" x2="220.516" y2="143.948" gradientUnits="userSpaceOnUse">
<stop stop-color="#010101" stop-opacity="0"/>
<stop offset="0.95" stop-color="#010101"/>
</linearGradient>
<linearGradient id="paint1_linear_254_11916" x1="178.9" y1="105.472" x2="192.718" y2="151.459" gradientUnits="userSpaceOnUse">
<stop stop-color="#010101" stop-opacity="0"/>
<stop offset="0.95" stop-color="#010101"/>
</linearGradient>
<linearGradient id="paint2_linear_254_11916" x1="211.725" y1="115.542" x2="216.908" y2="149.867" gradientUnits="userSpaceOnUse">
<stop stop-color="#010101" stop-opacity="0"/>
<stop offset="0.95" stop-color="#010101"/>
</linearGradient>
<linearGradient id="paint3_linear_254_11916" x1="146.553" y1="109.454" x2="150.223" y2="172.708" gradientUnits="userSpaceOnUse">
<stop stop-color="#010101" stop-opacity="0"/>
<stop offset="0.95" stop-color="#010101"/>
</linearGradient>
<linearGradient id="paint4_linear_254_11916" x1="195.729" y1="306.431" x2="243.66" y2="48.6389" gradientUnits="userSpaceOnUse">
<stop stop-color="#010101" stop-opacity="0"/>
<stop offset="0.95" stop-color="#010101"/>
</linearGradient>
<linearGradient id="paint5_linear_254_11916" x1="162.258" y1="90.2211" x2="94.569" y2="197.418" gradientUnits="userSpaceOnUse">
<stop stop-color="#010101" stop-opacity="0"/>
<stop offset="0.95" stop-color="#010101"/>
</linearGradient>
<linearGradient id="paint6_linear_254_11916" x1="215.393" y1="94.5471" x2="262.355" y2="194.298" gradientUnits="userSpaceOnUse">
<stop stop-color="#010101" stop-opacity="0"/>
<stop offset="0.95" stop-color="#010101"/>
</linearGradient>
<linearGradient id="paint7_linear_254_11916" x1="174.89" y1="274.071" x2="190.433" y2="84.9361" gradientUnits="userSpaceOnUse">
<stop stop-color="#010101" stop-opacity="0"/>
<stop offset="1" stop-color="#010101"/>
</linearGradient>
<linearGradient id="paint8_linear_254_11916" x1="185.27" y1="142.181" x2="185.27" y2="246.676" gradientUnits="userSpaceOnUse">
<stop stop-color="#010101" stop-opacity="0"/>
<stop offset="1" stop-color="#17124E"/>
</linearGradient>
<linearGradient id="paint9_linear_254_11916" x1="198.564" y1="62.9432" x2="203.097" y2="106.341" gradientUnits="userSpaceOnUse">
<stop stop-color="#010101" stop-opacity="0"/>
<stop offset="1" stop-color="#17124E"/>
</linearGradient>
<linearGradient id="paint10_linear_254_11916" x1="170.286" y1="58.8436" x2="174.819" y2="102.234" gradientUnits="userSpaceOnUse">
<stop stop-color="#010101" stop-opacity="0"/>
<stop offset="0.95" stop-color="#010101"/>
</linearGradient>
</defs>
</svg>
