<svg width="288" height="250" viewBox="0 0 288 250" fill="none" xmlns="http://www.w3.org/2000/svg">
<path opacity="0.24" d="M136.787 1.27868C120.495 0.0220648 103.901 -1.21809 87.9496 2.3158C71.9977 5.84968 56.5123 14.9368 49.461 29.3906C40.319 48.1191 47.0795 70.8809 40.6811 90.6684C37.1637 101.544 29.9094 110.802 23.4123 120.3C12.9807 135.522 4.05274 152.259 1.02918 170.367C-1.99437 188.476 1.49013 208.296 13.5295 222.404C32.7957 245.051 66.878 247.268 96.9819 247.74L203.547 249.342C217.348 249.551 231.714 249.644 244.192 243.855C264.09 234.57 274.28 212.873 280.881 192.317C287.065 173.062 291.351 151.436 282.39 133.256C277.347 123.028 268.452 114.742 264.831 103.942C260.199 89.999 265.28 74.8867 264.831 60.2298C262.866 -6.22809 182.026 4.76318 136.787 1.27868Z" fill="#DDDCE7"/>
<path d="M180.951 73.3674C180.979 72.859 180.863 72.3531 180.616 71.9077C180.382 71.6147 180.086 71.3768 179.749 71.2108C175.361 68.6489 170.491 67.0216 165.444 66.4313C164.622 66.2745 163.774 66.3389 162.985 66.6179C161.888 67.0953 161.339 68.2366 160.818 69.2957L151.105 89.5991C150.847 90.1478 150.589 90.7624 150.847 91.2947C151.005 91.5674 151.225 91.7987 151.489 91.9696C159.465 97.8711 169.428 100.43 179.261 99.1033C180.64 98.9961 181.972 98.5534 183.14 97.8137C187.53 94.6091 184.029 90.5045 181.928 87.5084C179.497 84.0458 181.099 77.5378 180.951 73.3674Z" fill="#B9B7CE"/>
<path d="M180.951 73.3674C180.979 72.859 180.863 72.3531 180.616 71.9077C180.382 71.6147 180.086 71.3768 179.749 71.2108C175.361 68.6489 170.491 67.0216 165.444 66.4313C164.622 66.2745 163.774 66.3389 162.985 66.6179C161.888 67.0953 161.339 68.2366 160.818 69.2957L151.105 89.5991C150.847 90.1478 150.589 90.7624 150.847 91.2947C151.005 91.5674 151.225 91.7987 151.489 91.9696C159.465 97.8711 169.428 100.43 179.261 99.1033C180.64 98.9961 181.972 98.5534 183.14 97.8137C187.53 94.6091 184.029 90.5045 181.928 87.5084C179.497 84.0458 181.099 77.5378 180.951 73.3674Z" fill="url(#paint0_linear_151_6339)"/>
<path d="M132.277 76.67C132.495 76.1832 132.824 75.7545 133.238 75.4189C133.773 75.112 134.383 74.96 134.999 74.9799C138.066 74.8885 141.136 74.9893 144.191 75.2817C146.183 75.3625 148.162 75.6382 150.1 76.1048C151.509 76.4901 152.854 77.0759 154.095 77.8443C154.687 78.1496 155.177 78.6206 155.506 79.1997C155.729 79.7832 155.808 80.4119 155.736 81.0325C155.643 83.3591 155.522 85.6858 155.39 88.007C155.127 92.6768 154.798 97.4563 152.899 101.725C152.696 102.262 152.375 102.745 151.961 103.141C151.572 103.43 151.127 103.636 150.655 103.745C149.382 104.062 148.076 104.23 146.764 104.244C142.361 104.407 137.954 104.038 133.638 103.147C131.618 102.774 129.652 102.155 127.783 101.303C127.472 101.184 127.204 100.974 127.015 100.699C126.895 100.431 126.848 100.136 126.878 99.8433C126.922 96.335 127.072 92.8359 127.328 89.3459C127.443 87.7985 127.372 86.0205 127.838 84.5335C128.134 83.5841 128.859 82.8433 129.364 81.9983C130.412 80.2643 131.306 78.4424 132.277 76.67Z" fill="#B9B7CE"/>
<path d="M132.277 76.67C132.495 76.1832 132.824 75.7545 133.238 75.4189C133.773 75.112 134.383 74.96 134.999 74.9799C138.066 74.8885 141.136 74.9893 144.191 75.2817C146.183 75.3625 148.162 75.6382 150.1 76.1048C151.509 76.4901 152.854 77.0759 154.095 77.8443C154.687 78.1496 155.177 78.6206 155.506 79.1997C155.729 79.7832 155.808 80.4119 155.736 81.0325C155.643 83.3591 155.522 85.6858 155.39 88.007C155.127 92.6768 154.798 97.4563 152.899 101.725C152.696 102.262 152.375 102.745 151.961 103.141C151.572 103.43 151.127 103.636 150.655 103.745C149.382 104.062 148.076 104.23 146.764 104.244C142.361 104.407 137.954 104.038 133.638 103.147C131.618 102.774 129.652 102.155 127.783 101.303C127.472 101.184 127.204 100.974 127.015 100.699C126.895 100.431 126.848 100.136 126.878 99.8433C126.922 96.335 127.072 92.8359 127.328 89.3459C127.443 87.7985 127.372 86.0205 127.838 84.5335C128.134 83.5841 128.859 82.8433 129.364 81.9983C130.412 80.2643 131.306 78.4424 132.277 76.67Z" fill="url(#paint1_linear_151_6339)"/>
<path d="M185.367 85.0215C186.289 84.9337 187.282 84.8623 188.072 85.3452C188.746 85.846 189.253 86.5383 189.527 87.3317C191.974 92.8485 193.091 98.8635 192.786 104.891C175.99 106.892 159.084 107.808 142.17 107.635C138.269 107.591 139.427 100.238 141.073 97.9992C143.377 94.9317 148.92 93.719 152.289 92.5118C162.969 88.6795 174.078 86.1642 185.367 85.0215Z" fill="#B9B7CE"/>
<path d="M185.367 85.0215C186.289 84.9337 187.282 84.8623 188.072 85.3452C188.746 85.846 189.253 86.5383 189.527 87.3317C191.974 92.8485 193.091 98.8635 192.786 104.891C175.99 106.892 159.084 107.808 142.17 107.635C138.269 107.591 139.427 100.238 141.073 97.9992C143.377 94.9317 148.92 93.719 152.289 92.5118C162.969 88.6795 174.078 86.1642 185.367 85.0215Z" fill="url(#paint2_linear_151_6339)"/>
<path d="M90.198 87.2613C90.1552 87.0031 90.1747 86.7384 90.2547 86.4891C90.3347 86.2399 90.473 86.0133 90.6581 85.8282C90.8432 85.6431 91.0697 85.5048 91.319 85.4248C91.5682 85.3448 91.8329 85.3254 92.0912 85.3682C106.421 84.2451 120.776 83.6122 135.156 83.4695C135.611 83.4253 136.069 83.5089 136.479 83.711C137.071 84.0786 137.225 84.8469 137.335 85.5328C138.096 90.5373 138.862 95.5418 139.634 100.546C139.759 101.013 139.721 101.509 139.524 101.951C139.195 102.5 138.465 102.632 137.829 102.697C125.618 104.002 113.343 104.62 101.063 104.547C97.189 104.519 92.1954 105.474 90.2584 101.337C88.4969 97.5557 89.8633 91.1958 90.198 87.2613Z" fill="#B9B7CE"/>
<path d="M90.198 87.2613C90.1552 87.0031 90.1747 86.7384 90.2547 86.4891C90.3347 86.2399 90.473 86.0133 90.6581 85.8282C90.8432 85.6431 91.0697 85.5048 91.319 85.4248C91.5682 85.3448 91.8329 85.3254 92.0912 85.3682C106.421 84.2451 120.776 83.6122 135.156 83.4695C135.611 83.4253 136.069 83.5089 136.479 83.711C137.071 84.0786 137.225 84.8469 137.335 85.5328C138.096 90.5373 138.862 95.5418 139.634 100.546C139.759 101.013 139.721 101.509 139.524 101.951C139.195 102.5 138.465 102.632 137.829 102.697C125.618 104.002 113.343 104.62 101.063 104.547C97.189 104.519 92.1954 105.474 90.2584 101.337C88.4969 97.5557 89.8633 91.1958 90.198 87.2613Z" fill="url(#paint3_linear_151_6339)"/>
<path d="M104.072 211.753C125.337 212.664 146.616 213.061 167.907 212.944C166.299 215.249 167.698 218.651 170.069 220.155C172.439 221.658 175.397 221.801 178.201 221.872L219.247 223.046C224.882 223.211 230.93 223.26 235.621 220.127C236.586 219.554 237.367 218.716 237.871 217.713C239.232 214.59 236.071 211.468 233.278 209.509L221.755 201.415C216.344 197.623 210.873 193.799 204.744 191.373C196.183 187.998 186.794 187.532 177.597 187.252C156.443 186.637 134.741 186.094 113.653 188.152C107.014 188.728 100.545 190.561 94.5895 193.552C90.8471 195.412 76.4482 199.588 75.9324 203.632C74.8184 211.709 99.2922 211.523 104.072 211.753Z" fill="url(#paint4_linear_151_6339)"/>
<path d="M138.287 62.0692C140.012 59.4387 139.278 55.9077 136.648 54.1825C134.017 52.4572 130.486 53.191 128.761 55.8215L95.3132 106.818C93.588 109.449 94.3218 112.98 96.9523 114.705C99.5827 116.43 103.114 115.696 104.839 113.066L138.287 62.0692Z" fill="#B9B7CE"/>
<path d="M159.887 58.8008C158.018 56.2704 154.452 55.7343 151.922 57.6032C149.391 59.4722 148.855 63.0386 150.724 65.569L186.958 114.625C188.827 117.156 192.393 117.692 194.923 115.823C197.454 113.954 197.99 110.388 196.121 107.857L159.887 58.8008Z" fill="#B9B7CE"/>
<path d="M138.287 62.0692C140.012 59.4387 139.278 55.9077 136.648 54.1825C134.017 52.4572 130.486 53.191 128.761 55.8215L95.3132 106.818C93.588 109.449 94.3218 112.98 96.9523 114.705C99.5827 116.43 103.114 115.696 104.839 113.066L138.287 62.0692Z" fill="url(#paint5_linear_151_6339)"/>
<path d="M159.887 58.8008C158.018 56.2704 154.452 55.7343 151.922 57.6032C149.391 59.4722 148.855 63.0386 150.724 65.569L186.958 114.625C188.827 117.156 192.393 117.692 194.923 115.823C197.454 113.954 197.99 110.388 196.121 107.857L159.887 58.8008Z" fill="url(#paint6_linear_151_6339)"/>
<path d="M186.991 201.136H95.8505L84.958 117.705H202.07L186.991 201.136Z" fill="#B9B7CE"/>
<path d="M202.071 117.694L186.987 201.13H95.8573L84.9648 117.694H202.071Z" fill="url(#paint7_linear_151_6339)"/>
<path d="M131.037 146.184V201.13H115.596V146.184C115.649 144.174 116.485 142.265 117.926 140.862C119.366 139.46 121.298 138.675 123.308 138.675C125.319 138.675 127.25 139.46 128.691 140.862C130.131 142.265 130.967 144.174 131.021 146.184H131.037Z" fill="#B9B7CE"/>
<path d="M164.544 146.184V201.13H149.119V146.184C149.173 144.174 150.009 142.265 151.449 140.862C152.89 139.46 154.821 138.675 156.832 138.675C158.842 138.675 160.773 139.46 162.214 140.862C163.655 142.265 164.491 144.174 164.544 146.184Z" fill="#B9B7CE"/>
<path d="M207.289 222.245C232.049 222.245 252.121 202.173 252.121 177.413C252.121 152.653 232.049 132.581 207.289 132.581C182.529 132.581 162.457 152.653 162.457 177.413C162.457 202.173 182.529 222.245 207.289 222.245Z" fill="white"/>
<path d="M200.314 203.841C198.705 203.84 197.161 203.2 196.023 202.063L176.378 182.44C175.293 181.292 174.699 179.765 174.721 178.185C174.744 176.605 175.382 175.097 176.5 173.98C177.617 172.863 179.126 172.226 180.706 172.204C182.286 172.182 183.812 172.778 184.96 173.863L200.012 188.915L230.741 153.675C231.258 153.052 231.895 152.539 232.613 152.166C233.331 151.793 234.116 151.567 234.923 151.502C235.73 151.437 236.541 151.534 237.31 151.787C238.079 152.04 238.789 152.445 239.399 152.976C240.009 153.508 240.507 154.157 240.863 154.884C241.218 155.61 241.425 156.401 241.471 157.209C241.516 158.017 241.4 158.826 241.128 159.589C240.857 160.351 240.435 161.051 239.889 161.648L204.879 201.783C204.331 202.413 203.657 202.922 202.901 203.278C202.146 203.634 201.325 203.83 200.489 203.852C200.431 203.853 200.372 203.849 200.314 203.841Z" fill="#EE2E24"/>
<path d="M205.243 101.616H82.2864C76.8222 101.616 72.3926 106.046 72.3926 111.51V116.855C72.3926 122.319 76.8222 126.749 82.2864 126.749H205.243C210.707 126.749 215.136 122.319 215.136 116.855V111.51C215.136 106.046 210.707 101.616 205.243 101.616Z" fill="#B9B7CE"/>
<path d="M205.243 101.616H82.2864C76.8222 101.616 72.3926 106.046 72.3926 111.51V116.855C72.3926 122.319 76.8222 126.749 82.2864 126.749H205.243C210.707 126.749 215.136 122.319 215.136 116.855V111.51C215.136 106.046 210.707 101.616 205.243 101.616Z" fill="url(#paint8_linear_151_6339)"/>
<path d="M155.494 66.8528C157.991 66.8528 160.016 64.8284 160.016 62.3312C160.016 59.834 157.991 57.8096 155.494 57.8096C152.997 57.8096 150.973 59.834 150.973 62.3312C150.973 64.8284 152.997 66.8528 155.494 66.8528Z" fill="url(#paint9_linear_151_6339)"/>
<path d="M133.545 63.6712C136.042 63.6712 138.067 61.6468 138.067 59.1495C138.067 56.6523 136.042 54.6279 133.545 54.6279C131.048 54.6279 129.023 56.6523 129.023 59.1495C129.023 61.6468 131.048 63.6712 133.545 63.6712Z" fill="url(#paint10_linear_151_6339)"/>
<defs>
<linearGradient id="paint0_linear_151_6339" x1="164.582" y1="71.2437" x2="171.118" y2="111.702" gradientUnits="userSpaceOnUse">
<stop stop-color="#010101" stop-opacity="0"/>
<stop offset="0.95" stop-color="#010101"/>
</linearGradient>
<linearGradient id="paint1_linear_151_6339" x1="138.824" y1="81.8446" x2="149.546" y2="117.529" gradientUnits="userSpaceOnUse">
<stop stop-color="#010101" stop-opacity="0"/>
<stop offset="0.95" stop-color="#010101"/>
</linearGradient>
<linearGradient id="paint2_linear_151_6339" x1="164.295" y1="89.6583" x2="168.318" y2="116.294" gradientUnits="userSpaceOnUse">
<stop stop-color="#010101" stop-opacity="0"/>
<stop offset="0.95" stop-color="#010101"/>
</linearGradient>
<linearGradient id="paint3_linear_151_6339" x1="113.723" y1="84.9347" x2="116.57" y2="134.019" gradientUnits="userSpaceOnUse">
<stop stop-color="#010101" stop-opacity="0"/>
<stop offset="0.95" stop-color="#010101"/>
</linearGradient>
<linearGradient id="paint4_linear_151_6339" x1="151.883" y1="237.786" x2="189.077" y2="37.7423" gradientUnits="userSpaceOnUse">
<stop stop-color="#010101" stop-opacity="0"/>
<stop offset="0.95" stop-color="#010101"/>
</linearGradient>
<linearGradient id="paint5_linear_151_6339" x1="125.91" y1="70.0099" x2="73.3846" y2="153.193" gradientUnits="userSpaceOnUse">
<stop stop-color="#010101" stop-opacity="0"/>
<stop offset="0.95" stop-color="#010101"/>
</linearGradient>
<linearGradient id="paint6_linear_151_6339" x1="167.143" y1="73.3669" x2="203.585" y2="150.772" gradientUnits="userSpaceOnUse">
<stop stop-color="#010101" stop-opacity="0"/>
<stop offset="0.95" stop-color="#010101"/>
</linearGradient>
<linearGradient id="paint7_linear_151_6339" x1="135.712" y1="212.676" x2="147.774" y2="65.9097" gradientUnits="userSpaceOnUse">
<stop stop-color="#010101" stop-opacity="0"/>
<stop offset="1" stop-color="#010101"/>
</linearGradient>
<linearGradient id="paint8_linear_151_6339" x1="143.767" y1="110.33" x2="143.767" y2="191.418" gradientUnits="userSpaceOnUse">
<stop stop-color="#010101" stop-opacity="0"/>
<stop offset="1" stop-color="#17124E"/>
</linearGradient>
<linearGradient id="paint9_linear_151_6339" x1="154.084" y1="48.8432" x2="157.601" y2="82.5193" gradientUnits="userSpaceOnUse">
<stop stop-color="#010101" stop-opacity="0"/>
<stop offset="1" stop-color="#17124E"/>
</linearGradient>
<linearGradient id="paint10_linear_151_6339" x1="132.14" y1="45.6615" x2="135.658" y2="79.3322" gradientUnits="userSpaceOnUse">
<stop stop-color="#010101" stop-opacity="0"/>
<stop offset="0.95" stop-color="#010101"/>
</linearGradient>
</defs>
</svg>
