<svg width="85" height="94" viewBox="0 0 85 94" fill="none" xmlns="http://www.w3.org/2000/svg">
<path d="M75.6655 12.5942C80.481 13.2655 84.0558 17.3997 84.0558 22.2622V28.699C84.0558 76.7629 54.8335 89.7271 45.4004 92.6597C43.5117 93.2471 41.4933 93.2471 39.6036 92.6597C30.1705 89.726 0.94812 76.7618 0.94812 28.6979V22.298C0.94812 17.4276 4.5307 13.2633 9.35858 12.6255C22.08 10.9439 31.4437 5.74117 36.9138 1.83412C40.2883 -0.575904 44.8018 -0.618421 48.2053 1.75132C53.794 5.64271 63.2719 10.8667 75.6644 12.5931L75.6655 12.5942Z" fill="url(#paint0_linear_16_697)"/>
<path d="M35.3798 65.9995C34.0484 65.9995 32.7662 65.4714 31.8185 64.5238L21.9916 54.6968C20.0246 52.7299 20.0246 49.54 21.9916 47.5731C23.9585 45.6061 27.1484 45.6061 29.1153 47.5731L34.892 53.3497L55.4633 26.684C57.1629 24.481 60.3259 24.0726 62.5289 25.7721C64.732 27.4717 65.1392 30.6347 63.4408 32.8377L39.3697 64.0393C38.4847 65.1861 37.1499 65.8966 35.7043 65.9895C35.5969 65.9962 35.4884 65.9995 35.3809 65.9995H35.3798Z" fill="white"/>
<defs>
<linearGradient id="paint0_linear_16_697" x1="105.449" y1="36.5307" x2="-0.730166" y2="35.244" gradientUnits="userSpaceOnUse">
<stop offset="0.21145" stop-color="#1D1761"/>
<stop offset="1" stop-color="#EE2E24"/>
</linearGradient>
</defs>
</svg>
