<svg width="92" height="89" viewBox="0 0 92 89" fill="none" xmlns="http://www.w3.org/2000/svg">
<path fill-rule="evenodd" clip-rule="evenodd" d="M58.8912 0.587107L73.6895 0.581543C73.9246 0.581543 74.1583 0.587107 74.3906 0.594062H74.3934C74.7036 0.606582 75.0124 0.626056 75.3184 0.653877H75.3212C75.6272 0.681697 75.9333 0.716473 76.2337 0.759595H76.2365C77.3716 0.919564 78.4719 1.18525 79.5291 1.54414H79.5318L79.7419 1.61647C80.443 1.86407 81.1246 2.1548 81.7867 2.48308H81.7895C83.5714 3.37195 85.1919 4.54598 86.5885 5.9384C89.9006 9.24349 91.9482 13.8089 91.9482 18.8305V70.3529C91.9482 75.3773 89.8936 79.9371 86.5885 83.2477C84.8817 84.9518 82.8397 86.3219 80.5765 87.2525H80.5737L80.3706 87.3346H80.3679L80.162 87.4153H80.1592L79.9505 87.4932H79.9478L79.7377 87.5683L79.5277 87.6406H79.5249L79.3148 87.7102H79.312L79.0992 87.7783H79.0965C78.9532 87.8228 78.8113 87.866 78.668 87.9063H78.6652L78.4496 87.9661H78.4468L78.2312 88.0232H78.2285L78.01 88.0788H78.0073L77.7889 88.1316H77.7861L77.5677 88.1817H77.5649L77.3437 88.229H77.341L77.1198 88.2735L76.8972 88.3167L76.6747 88.357H76.6719L76.4493 88.3946H76.4465L76.2212 88.4266H76.2184L75.993 88.4572H75.9903L75.7649 88.485H75.7621L75.534 88.51H75.5312L75.3031 88.5323H75.3003L75.0722 88.5517H75.0694L74.8413 88.567H74.8385L74.6076 88.5796H74.6048L74.3739 88.5893H74.3711L74.1402 88.5963H74.1374L73.9037 88.6018H73.9009L73.6672 88.6046L18.3065 88.6102C13.2821 88.6102 8.72369 86.5556 5.41164 83.2505C2.10655 79.9412 0.052002 75.3801 0.052002 70.3557V18.836C0.052002 13.8116 2.0996 9.24627 5.41164 5.94118C8.72508 2.63609 13.2821 0.581543 18.3065 0.581543H58.8829H58.8773L58.8912 0.587107Z" fill="url(#paint0_linear_16_686)"/>
<path fill-rule="evenodd" clip-rule="evenodd" d="M57.2003 6.00393H69.1115C69.3158 6.00393 69.5189 6.00785 69.7219 6.01439H69.7245C69.9952 6.02486 70.2633 6.04318 70.5288 6.06673H70.5314C70.7969 6.09028 71.0637 6.12168 71.3253 6.15831H71.3279C72.3158 6.2983 73.2723 6.53119 74.1925 6.84388H74.1951L74.3786 6.90799C74.989 7.12518 75.5825 7.379 76.1577 7.66683H76.1603C77.7104 8.4453 79.1212 9.47104 80.3355 10.6891C83.2183 13.5805 85 17.5736 85 21.967V67.0356C85 71.4303 83.2118 75.4194 80.3355 78.3148C78.8505 79.805 77.074 81.0048 75.1048 81.8173H75.1022L74.9252 81.8892H74.9226L74.7443 81.9599H74.7417L74.5608 82.0279H74.5582L74.3747 82.0933L74.1912 82.1574H74.1886L74.0051 82.2189H74.0025L73.8177 82.2778H73.8151C73.6901 82.317 73.5665 82.355 73.4428 82.389H73.4402L73.2528 82.4413H73.2502L73.0628 82.4924H73.0602L72.8702 82.5408H72.8676L72.6776 82.5866H72.675L72.4849 82.6311H72.4823L72.291 82.6729H72.2884L72.0971 82.7122L71.9032 82.7488L71.7093 82.7841H71.7067L71.5127 82.8168H71.5101L71.3136 82.8456H71.311L71.1145 82.8718H71.1119L70.9154 82.8953H70.9128L70.7149 82.9176H70.7123L70.5145 82.9372H70.5119L70.3141 82.9542H70.3115L70.1136 82.9673H70.111L69.9106 82.9778H69.908L69.7076 82.9869H69.705L69.5046 82.9935H69.5019L69.2989 82.9974H69.2963L69.0933 83H21.8846C17.5129 83 13.546 81.2023 10.6645 78.3109C7.78824 75.4155 6 71.4264 6 67.0317V21.9683C6 17.5736 7.78173 13.5792 10.6645 10.6891C13.5473 7.79767 17.5129 6 21.8846 6H57.1925H57.1886L57.199 6.00393H57.2003Z" fill="white"/>
<path d="M58.0619 57.222C65.0305 50.2534 65.0305 38.9551 58.0619 31.9865C51.0933 25.018 39.795 25.018 32.8265 31.9865C25.8579 38.9551 25.8579 50.2534 32.8265 57.222C39.795 64.1905 51.0933 64.1905 58.0619 57.222Z" fill="url(#paint1_linear_16_686)"/>
<defs>
<linearGradient id="paint0_linear_16_686" x1="-4.99991" y1="39.5" x2="92.0001" y2="40" gradientUnits="userSpaceOnUse">
<stop stop-color="#EE2E24"/>
<stop offset="1" stop-color="#1D1761"/>
</linearGradient>
<linearGradient id="paint1_linear_16_686" x1="32.8265" y1="31.9865" x2="58.0619" y2="57.222" gradientUnits="userSpaceOnUse">
<stop stop-color="#EE2E24"/>
<stop offset="1" stop-color="#1D1761"/>
</linearGradient>
</defs>
</svg>
