<svg width="85" height="72" viewBox="0 0 85 72" fill="none" xmlns="http://www.w3.org/2000/svg">
<path d="M42.457 11.3636C42.457 11.3636 49.731 0.629778 60.8429 0.0388919C74.7553 -0.699241 84.1839 9.17863 84.9172 20.3722C85.643 31.4347 77.9007 41.4532 71.6451 48.2683C63.1399 57.5316 50.2772 66.981 42.7563 71.3794C35.1906 67.057 22.2348 57.7358 13.6394 48.5562C7.31542 41.8047 -0.525695 31.8622 0.0898908 20.794C0.710226 9.59377 10.0428 -0.378149 23.959 0.222238C35.0776 0.701977 42.457 11.3636 42.457 11.3636Z" fill="url(#paint0_linear_16_701)"/>
<path d="M51.1271 44.3065C55.8861 39.5474 55.8861 31.8315 51.1271 27.0724C46.368 22.3134 38.6521 22.3134 33.893 27.0724C29.134 31.8315 29.134 39.5474 33.893 44.3065C38.6521 49.0655 46.368 49.0655 51.1271 44.3065Z" fill="white"/>
<defs>
<linearGradient id="paint0_linear_16_701" x1="94.3957" y1="21.158" x2="-8.90526" y2="17.6732" gradientUnits="userSpaceOnUse">
<stop offset="0.0366663" stop-color="#1D1761"/>
<stop offset="1" stop-color="#EE2E24"/>
</linearGradient>
</defs>
</svg>
