<svg width="16" height="21" viewBox="0 0 16 21" fill="none" xmlns="http://www.w3.org/2000/svg">
<path d="M15 5.70227H12V4.74483C12 3.7291 11.5786 2.75498 10.8284 2.03676C10.0783 1.31853 9.06087 0.915039 8 0.915039C6.93913 0.915039 5.92172 1.31853 5.17157 2.03676C4.42143 2.75498 4 3.7291 4 4.74483V5.70227H1C0.734784 5.70227 0.48043 5.80315 0.292893 5.9827C0.105357 6.16226 0 6.40579 0 6.65972V17.1916C0 17.9534 0.316071 18.684 0.87868 19.2227C1.44129 19.7614 2.20435 20.064 3 20.064H13C13.7956 20.064 14.5587 19.7614 15.1213 19.2227C15.6839 18.684 16 17.9534 16 17.1916V6.65972C16 6.40579 15.8946 6.16226 15.7071 5.9827C15.5196 5.80315 15.2652 5.70227 15 5.70227ZM6 4.74483C6 4.23697 6.21071 3.7499 6.58579 3.39079C6.96086 3.03168 7.46957 2.82993 8 2.82993C8.53043 2.82993 9.03914 3.03168 9.41421 3.39079C9.78929 3.7499 10 4.23697 10 4.74483V5.70227H6V4.74483ZM14 17.1916C14 17.4456 13.8946 17.6891 13.7071 17.8687C13.5196 18.0482 13.2652 18.1491 13 18.1491H3C2.73478 18.1491 2.48043 18.0482 2.29289 17.8687C2.10536 17.6891 2 17.4456 2 17.1916V7.61717H4V8.57461C4 8.82854 4.10536 9.07207 4.29289 9.25163C4.48043 9.43119 4.73478 9.53206 5 9.53206C5.26522 9.53206 5.51957 9.43119 5.70711 9.25163C5.89464 9.07207 6 8.82854 6 8.57461V7.61717H10V8.57461C10 8.82854 10.1054 9.07207 10.2929 9.25163C10.4804 9.43119 10.7348 9.53206 11 9.53206C11.2652 9.53206 11.5196 9.43119 11.7071 9.25163C11.8946 9.07207 12 8.82854 12 8.57461V7.61717H14V17.1916Z" fill="#1D1761"/>
</svg>
