<svg width="20" height="16" viewBox="0 0 20 16" fill="none" xmlns="http://www.w3.org/2000/svg">
<path d="M7.2 12L10 9.9L12.75 12L11.7 8.6L14.5 6.4H11.1L10 3L8.9 6.4H5.5L8.25 8.6L7.2 12ZM2 16C1.45 16 0.979333 15.8043 0.588 15.413C0.196667 15.0217 0.000666667 14.5507 0 14V10.625C0 10.4417 0.0583333 10.2833 0.175 10.15C0.291667 10.0167 0.441667 9.93333 0.625 9.9C1.025 9.76667 1.35433 9.525 1.613 9.175C1.87167 8.825 2.00067 8.43333 2 8C2 7.56667 1.871 7.175 1.613 6.825C1.355 6.475 1.02567 6.23333 0.625 6.1C0.441667 6.06667 0.291667 5.98333 0.175 5.85C0.0583333 5.71667 0 5.55833 0 5.375V2C0 1.45 0.196 0.979333 0.588 0.588C0.98 0.196666 1.45067 0.000666667 2 0H18C18.55 0 19.021 0.196 19.413 0.588C19.805 0.98 20.0007 1.45067 20 2V5.375C20 5.55833 19.9417 5.71667 19.825 5.85C19.7083 5.98333 19.5583 6.06667 19.375 6.1C18.975 6.23333 18.646 6.475 18.388 6.825C18.13 7.175 18.0007 7.56667 18 8C18 8.43333 18.1293 8.825 18.388 9.175C18.6467 9.525 18.9757 9.76667 19.375 9.9C19.5583 9.93333 19.7083 10.0167 19.825 10.15C19.9417 10.2833 20 10.4417 20 10.625V14C20 14.55 19.8043 15.021 19.413 15.413C19.0217 15.805 18.5507 16.0007 18 16H2ZM2 14H18V11.45C17.3833 11.0833 16.8957 10.596 16.537 9.988C16.1783 9.38 15.9993 8.71733 16 8C16 7.28333 16.1793 6.621 16.538 6.013C16.8967 5.405 17.384 4.91733 18 4.55V2H2V4.55C2.61667 4.91667 3.10433 5.40433 3.463 6.013C3.82167 6.62167 4.00067 7.284 4 8C4 8.71667 3.821 9.37933 3.463 9.988C3.105 10.5967 2.61733 11.084 2 11.45V14Z" fill="#1D1761"/>
</svg>
