<svg width="15" height="10" viewBox="0 0 15 10" fill="none" xmlns="http://www.w3.org/2000/svg">
<path d="M7.5 9.99877C6.27 10.0136 5.05263 9.76062 3.94066 9.25988C3.07667 8.85799 2.30252 8.30485 1.65987 7.63025C0.975462 6.92889 0.437819 6.11297 0.075 5.22506L0 4.99914L0.0789474 4.77358C0.442065 3.88671 0.978495 3.07125 1.66066 2.36914C2.30306 1.69459 3.07694 1.14146 3.94066 0.739508C5.05053 0.239015 6.26869 -0.0139901 7.5 0.000248936C8.73 -0.0145659 9.94737 0.238397 11.0593 0.739138C11.9234 1.141 12.6975 1.69413 13.3401 2.36877C14.0258 3.06907 14.5636 3.88512 14.925 4.77358L15 4.99951L14.9211 5.22506C13.7447 8.14173 10.7807 10.048 7.5 9.99877ZM7.5 1.42877C4.94684 1.35247 2.60368 2.76803 1.58763 4.99988C2.60329 7.2321 4.94684 8.64729 7.5 8.57099C10.0532 8.64692 12.3963 7.23173 13.4124 5.00025C12.3979 2.76655 10.0536 1.35099 7.5 1.42877ZM7.5 7.1421C6.41803 7.14914 5.48211 6.42617 5.26579 5.41654C5.04947 4.40692 5.61316 3.39284 6.61184 2.99543C7.60974 2.59803 8.76395 2.92877 9.36632 3.78432C9.65873 4.20043 9.79041 4.69798 9.73941 5.1941C9.68842 5.69022 9.45783 6.15498 9.08605 6.51099C8.87998 6.71021 8.63347 6.86868 8.36107 6.97708C8.08866 7.08547 7.79589 7.14158 7.5 7.1421Z" fill="black"/>
</svg>
