<svg width="42" height="42" viewBox="0 0 42 42" fill="none" xmlns="http://www.w3.org/2000/svg">
<circle cx="21" cy="21" r="20.5" fill="white" stroke="#E8E8EF"/>
<g clip-path="url(#clip0_59_8787)">
<path d="M35 21.0006C35 13.2678 28.7322 7 20.9994 7C13.2665 7 7 13.2678 7 21.0006C7 28.7335 13.2678 35 20.9994 35C21.0392 35 21.0791 34.9975 21.119 34.9975V25.2302H17.7478V21.3258H21.119V18.4467C21.119 15.1054 23.1596 13.2865 26.1397 13.2865C27.5674 13.2865 28.7945 13.3923 29.1521 13.4397V16.9317H27.0853C25.4644 16.9317 25.1505 17.7029 25.1505 18.8329V21.3258H29.0163L28.513 25.2302H25.1505V34.3746C30.8551 32.6055 35 27.2871 35 21.0006Z" fill="#395398"/>
<path d="M28.513 25.2302L29.0163 21.3258H25.1505V18.8329C25.1505 17.7029 25.4645 16.933 27.0853 16.933H29.1521V13.4409C28.7946 13.3936 27.5674 13.2877 26.1397 13.2877C23.1597 13.2877 21.119 15.1066 21.119 18.4479V21.327H17.7478V25.2314H21.119V34.9987C22.5218 34.9863 23.8748 34.7708 25.1505 34.3758V25.2314H28.513V25.2302Z" fill="white"/>
</g>
<defs>
<clipPath id="clip0_59_8787">
<rect width="28" height="28" fill="white" transform="translate(7 7)"/>
</clipPath>
</defs>
</svg>
