<svg width="42" height="42" viewBox="0 0 42 42" fill="none" xmlns="http://www.w3.org/2000/svg">
<circle cx="21" cy="21" r="20.5" fill="white" stroke="#E8E8EF"/>
<g clip-path="url(#clip0_59_8788)">
<path d="M9.7726 31H13.9091V20.6965L8 16.1511V29.1819C8 30.1861 8.79358 31.0002 9.7726 31.0002V31Z" fill="#4285F4"/>
<path d="M28.0906 31H32.2272C33.2062 31 34 30.1861 34 29.1817V16.1511L28.0906 20.6965V31Z" fill="#34A853"/>
<path d="M28.0906 12.8184V20.6965L34 16.1511V13.7275C34 12.2213 32.8095 11 31.3408 11C30.7655 11 30.2058 11.1915 29.7454 11.5454L28.0906 12.8181V12.8184Z" fill="#FBBC04"/>
<path d="M13.9093 20.6965V12.8185L21 18.2729L28.0906 12.8185V20.6965L21 26.1509L13.9093 20.6965Z" fill="#EA4335"/>
<path d="M8 13.7275V16.1511L13.9093 20.6965V12.8184L12.2544 11.5456C11.0795 10.6418 9.41293 10.8861 8.53178 12.091C8.18667 12.563 8 13.1374 8 13.7275Z" fill="#C5221F"/>
</g>
<defs>
<clipPath id="clip0_59_8788">
<rect width="26" height="20" fill="white" transform="translate(8 11)"/>
</clipPath>
</defs>
</svg>
