<svg width="57" height="25" viewBox="0 0 57 25" fill="none" xmlns="http://www.w3.org/2000/svg">
<rect x="0.25" y="0.25" width="56.5" height="24.5" rx="4.75" fill="white" stroke="#E8E8EF" stroke-width="0.5"/>
<path d="M34.6989 11.0186C37.2016 11.0186 39.225 9.00265 39.225 6.50928C39.225 4.01591 37.2016 2 34.6989 2C32.1963 2 30.1729 4.01591 30.1729 6.50928C30.1729 9.00265 32.1963 11.0186 34.6989 11.0186ZM34.6989 4.58886C35.7639 4.58886 36.6265 5.44827 36.6265 6.50928C36.6265 7.57029 35.7639 8.4297 34.6989 8.4297C33.634 8.4297 32.7714 7.57029 32.7714 6.50928C32.7714 5.44827 33.634 4.58886 34.6989 4.58886Z" fill="#A50064"/>
<path d="M34.6989 12.9707C32.1963 12.9707 30.1729 14.9866 30.1729 17.48C30.1729 19.9734 32.1963 21.9893 34.6989 21.9893C37.2016 21.9893 39.225 19.9734 39.225 17.48C39.225 14.9866 37.2016 12.9707 34.6989 12.9707ZM34.6989 19.4004C33.634 19.4004 32.7714 18.541 32.7714 17.48C32.7714 16.419 33.634 15.5596 34.6989 15.5596C35.7639 15.5596 36.6265 16.419 36.6265 17.48C36.6265 18.541 35.7639 19.4004 34.6989 19.4004Z" fill="#A50064"/>
<path d="M25.477 12.9707C24.7102 12.9707 24.0073 13.2254 23.4429 13.6498C22.8785 13.2254 22.165 12.9707 21.4089 12.9707C19.5346 12.9707 18.0117 14.488 18.0117 16.3553V21.9999H20.6102V16.3235C20.6102 15.8991 20.9509 15.5596 21.3769 15.5596C21.8029 15.5596 22.1437 15.8991 22.1437 16.3235V21.9893H24.7422V16.3235C24.7422 15.8991 25.0829 15.5596 25.5089 15.5596C25.9349 15.5596 26.2757 15.8991 26.2757 16.3235V21.9893H28.8635V16.3447C28.8635 14.488 27.3513 12.9707 25.477 12.9707Z" fill="#A50064"/>
<path d="M25.476 2C24.7092 2 24.0064 2.25464 23.4419 2.67905C22.8774 2.25464 22.164 2 21.4079 2C19.5229 2 18 3.51724 18 5.38461V11.0186H20.5984V5.35278C20.5984 4.92838 20.9392 4.58886 21.3652 4.58886C21.7912 4.58886 22.1321 4.92838 22.1321 5.35278V11.0186H24.7304V5.35278C24.7304 4.92838 25.0713 4.58886 25.4973 4.58886C25.9233 4.58886 26.2641 4.92838 26.2641 5.35278V11.0186H28.8625V5.38461C28.8625 3.51724 27.3503 2 25.476 2Z" fill="#A50064"/>
</svg>
