<svg width="44" height="41" viewBox="0 0 44 41" fill="none" xmlns="http://www.w3.org/2000/svg">
<path d="M34.4916 18.46C39.5932 18.46 43.7178 14.3507 43.7178 9.26808C43.7178 4.18549 39.5932 0.0761719 34.4916 0.0761719C29.3902 0.0761719 25.2656 4.18549 25.2656 9.26808C25.2656 14.3507 29.3902 18.46 34.4916 18.46ZM34.4916 5.35342C36.6626 5.35342 38.4209 7.10527 38.4209 9.26808C38.4209 11.4309 36.6626 13.1827 34.4916 13.1827C32.3209 13.1827 30.5625 11.4309 30.5625 9.26808C30.5625 7.10527 32.3209 5.35342 34.4916 5.35342Z" fill="#A50064"/>
<path d="M34.4916 22.4395C29.3902 22.4395 25.2656 26.5487 25.2656 31.6314C25.2656 36.7141 29.3902 40.8234 34.4916 40.8234C39.5932 40.8234 43.7178 36.7141 43.7178 31.6314C43.7178 26.5487 39.5932 22.4395 34.4916 22.4395ZM34.4916 35.546C32.3209 35.546 30.5625 33.7942 30.5625 31.6314C30.5625 29.4686 32.3209 27.7168 34.4916 27.7168C36.6626 27.7168 38.4209 29.4686 38.4209 31.6314C38.4209 33.7942 36.6626 35.546 34.4916 35.546Z" fill="#A50064"/>
<path d="M15.6962 22.4395C14.1331 22.4395 12.7003 22.9586 11.5498 23.8238C10.3993 22.9586 8.94484 22.4395 7.40358 22.4395C3.58282 22.4395 0.478516 25.5324 0.478516 29.3388V40.845H5.77547V29.2739C5.77547 28.4088 6.46997 27.7168 7.33835 27.7168C8.20672 27.7168 8.90142 28.4088 8.90142 29.2739V40.8234H14.1983V29.2739C14.1983 28.4088 14.8928 27.7168 15.7612 27.7168C16.6296 27.7168 17.3243 28.4088 17.3243 29.2739V40.8234H22.5994V29.3172C22.5994 25.5324 19.5168 22.4395 15.6962 22.4395Z" fill="#A50064"/>
<path d="M15.6944 0.0761719C14.1313 0.0761719 12.6987 0.595245 11.5482 1.46037C10.3975 0.595245 8.94305 0.0761719 7.40179 0.0761719C3.55938 0.0761719 0.455078 3.16898 0.455078 6.97551V18.46H5.75187V6.91062C5.75187 6.04551 6.44657 5.35342 7.31495 5.35342C8.18332 5.35342 8.87803 6.04551 8.87803 6.91062V18.46H14.1747V6.91062C14.1747 6.04551 14.8694 5.35342 15.7378 5.35342C16.6062 5.35342 17.3009 6.04551 17.3009 6.91062V18.46H22.5978V6.97551C22.5978 3.16898 19.515 0.0761719 15.6944 0.0761719Z" fill="#A50064"/>
</svg>
