<svg width="87" height="16" viewBox="0 0 87 16" fill="none" xmlns="http://www.w3.org/2000/svg">
<path d="M18.4465 5.70359C18.4465 6.83779 18.4465 7.67451 18.4465 8.52971C18.4465 9.40369 18.4465 10.2591 18.4465 11.1329C18.4465 12.4159 18.1911 13.7731 19.6505 14.8331C18.1181 14.8331 16.8593 14.8331 15.4546 14.8331C16.9323 13.0666 16.1843 11.0213 16.312 9.10618C16.4033 7.84194 16.3303 6.5589 16.3303 5.29454C16.3303 3.73267 16.6039 2.11502 15.1992 0.869259C15.2539 0.813467 15.2904 0.757698 15.3452 0.701906C16.7134 0.701906 18.0816 0.683333 19.4499 0.720504C19.7965 0.739101 19.9607 1.14817 20.1614 1.40847C22.0952 3.82563 24.0289 6.26139 25.9627 8.69713C26.1451 8.92021 26.2728 9.23627 26.6925 9.3107C26.6925 6.96795 26.6925 4.66235 26.6925 2.33815C26.6925 1.72457 26.0721 1.37129 25.9263 0.720504C27.185 0.720504 28.4255 0.720504 29.6479 0.720504C29.666 0.776296 29.7209 0.850662 29.7026 0.869259C28.7356 1.79894 28.7903 3.00751 28.8086 4.2161C28.845 7.56297 28.8269 10.9098 28.8086 14.2566C28.8086 15.2421 28.6992 15.3166 27.7506 15.1121C26.2547 14.7958 25.087 13.9964 24.1566 12.7691C22.5147 10.6494 20.8364 8.5856 19.1762 6.48451C19.012 6.29859 18.8114 6.11266 18.4465 5.70359Z" fill="#ED1C24"/>
<path d="M45.4809 14.9949C43.967 14.9949 42.6523 14.9949 41.3379 14.9949C43.1703 11.7836 44.0069 8.24343 45.3413 4.89663C45.6403 4.14217 45.8793 3.38772 46.158 2.63326C46.417 1.85947 46.4767 1.10499 45.5406 0.350534C47.4926 0.350534 49.1857 0.331199 50.8787 0.369892C51.3967 0.389227 51.3567 0.911548 51.4961 1.25976C52.9104 4.87729 54.3247 8.51406 55.7188 12.151C56.0974 13.157 56.6151 14.0662 57.4518 14.9754C55.2011 14.9754 53.0897 14.9754 50.9584 14.9754C51.6157 14.0082 51.4564 11.7061 50.6794 10.7969C50.54 10.6228 50.3607 10.584 50.1617 10.584C48.9067 10.584 47.632 10.584 46.3773 10.5648C46.0186 10.5648 45.8193 10.7196 45.7199 11.029C45.461 11.7836 45.182 12.538 44.923 13.3118C44.684 13.9114 45.0227 14.3951 45.4809 14.9949ZM48.2296 4.08414C47.672 4.91599 47.5126 5.70914 47.2734 6.44426C46.5366 8.64962 46.5563 8.64962 48.9864 8.57209C49.0463 8.57209 49.126 8.57209 49.1857 8.57209C49.6837 8.59159 49.843 8.35948 49.6837 7.91452C49.2056 6.69573 48.7474 5.477 48.2296 4.08414Z" fill="#005AAB"/>
<path d="M35.9089 8.75331C37.6152 7.43936 37.9634 5.85484 37.4932 3.99979C37.2844 3.1689 36.7446 2.64717 35.9612 2.47325C35.6128 2.39596 35.404 2.5119 35.404 2.95633C35.4214 6.2413 35.404 9.52622 35.4387 12.8112C35.4387 13.5841 35.7001 14.2992 36.1874 14.9949C34.4813 14.9949 32.8793 14.9949 31.173 14.9949C31.8346 14.0866 31.8869 13.1011 31.8869 12.1156C31.8346 8.81133 31.974 5.4877 31.8172 2.1834C31.7823 1.54574 31.6082 1.00467 31.0859 0.386322C31.7302 0.386322 32.2351 0.367012 32.7226 0.386322C34.6378 0.463637 36.5532 0.154449 38.4509 0.56024C40.1747 0.946719 41.202 2.20273 41.3238 3.9225C41.4632 6.02874 40.7145 7.45867 39.0429 8.21227C38.1375 8.61799 37.18 8.79207 35.9089 8.75331Z" fill="#005AAB"/>
<path d="M0.689453 0.794103C2.16119 0.794103 3.55648 0.812581 4.95176 0.794103C5.46782 0.794103 5.46782 1.18234 5.58252 1.47816C6.67197 4.38081 7.76144 7.30194 8.87004 10.2047C8.96561 10.482 9.00383 10.7961 9.3861 11.0365C10.1315 9.15088 10.8387 7.30194 11.565 5.45314C11.8326 4.76908 12.062 4.04803 12.3678 3.38245C12.6927 2.69839 12.8074 2.05131 12.3296 1.38572C12.062 1.01596 12.1193 0.831083 12.6736 0.775624C15.5789 0.572241 15.598 0.572241 14.6041 3.25303C13.2088 7.0616 11.7753 10.8701 10.38 14.6787C10.208 15.1411 10.0168 15.2887 9.48168 15.1594C7.36008 14.6048 5.81188 13.5325 5.0091 11.4249C3.67115 7.89354 2.18031 4.41779 0.689453 0.794103Z" fill="#ED1C24"/>
<path d="M56.0625 0.368943C57.8621 0.368943 59.4593 0.388255 61.0767 0.349609C61.5418 0.349609 61.7238 0.581529 61.9259 0.890741C62.8358 2.28219 63.7657 3.65434 64.6554 5.04581C65.0192 5.60626 65.262 5.62559 65.6259 5.06515C66.0908 4.36941 66.6369 3.69301 67.122 2.99727C67.9106 1.85702 67.9106 1.50917 67.2635 0.349609C68.7192 0.349609 70.1749 0.349609 71.6104 0.349609C71.7319 0.349609 71.8734 0.368943 72.1766 0.407589C71.4082 1.45118 70.7209 2.41749 70.0334 3.38379C68.9416 4.89121 67.8298 6.37931 66.7379 7.88675C66.5964 8.09936 66.3738 8.33123 66.3941 8.5631C66.4547 10.7082 65.8685 12.9309 67.2231 14.9987C65.262 14.9987 63.3614 14.9987 61.3801 14.9987C62.5728 12.9501 61.8855 10.7663 62.0472 8.67916C62.0674 8.50508 61.9461 8.31197 61.8451 8.15739C60.2277 5.87682 58.6302 3.61569 57.0128 1.37389C56.7905 1.04535 56.4872 0.794115 56.0625 0.368943Z" fill="#005AAB"/>
<path d="M80.5452 8.51316C79.3294 9.35361 78.4129 9.35361 77.2157 8.47677C76.4675 7.9286 75.7567 7.52669 74.7279 7.49006C73.1566 7.45358 72.0344 6.10161 71.7913 4.32943C71.5668 2.79476 72.4272 1.29665 73.8489 0.711992C75.5136 0.017752 77.3468 0.346608 78.3006 1.47934C79.4229 2.81303 79.4978 4.74963 78.3941 6.21122C77.9827 6.74105 78.0949 7.01509 78.5439 7.3805C79.1049 7.85559 79.7409 8.23919 80.5452 8.51316ZM73.7367 3.72653C73.774 4.34769 73.8862 5.02369 74.2603 5.64485C74.6156 6.2295 75.102 6.63144 75.8504 6.5401C76.6359 6.43046 76.8978 5.8641 77.0661 5.22465C77.2345 4.5852 77.1596 3.94575 77.0288 3.3246C76.7855 2.06397 76.0747 1.35144 75.1581 1.40626C74.3165 1.46107 73.7367 2.33801 73.7367 3.72653Z" fill="#ED1C24"/>
<path d="M80.4793 0.364541C81.5333 0.364541 82.6943 0.318807 83.8378 0.387418C84.5881 0.433151 85.1598 0.959158 85.3741 1.87393C85.5886 2.7887 85.4813 3.74922 84.8023 4.32094C84.2844 4.7326 84.4095 5.09851 84.6594 5.57876C85.2133 6.65363 85.6242 7.81992 86.303 8.8033C83.9628 10.0155 83.4625 7.70553 82.623 5.69311C82.3906 6.95093 82.3906 7.91148 82.7122 8.96335C81.944 9.14647 81.1937 9.00925 80.4434 9.03208C80.6757 6.12762 80.6222 3.29183 80.4793 0.364541ZM82.4265 3.086C82.6051 3.52051 82.1763 4.3667 82.7659 4.38955C83.3017 4.41243 83.5697 3.65773 83.5519 2.97165C83.5519 2.30845 83.3376 1.59948 82.7837 1.69097C82.1585 1.78244 82.623 2.60574 82.4265 3.086Z" fill="#ED1C24"/>
</svg>
