<svg width="32" height="32" viewBox="0 0 32 32" fill="none" xmlns="http://www.w3.org/2000/svg">
<path d="M11 21L21 11" stroke="#1D1761" stroke-width="2" stroke-linecap="round" stroke-linejoin="round"/>
<path d="M11.8333 12.6667C12.2936 12.6667 12.6667 12.2936 12.6667 11.8333C12.6667 11.3731 12.2936 11 11.8333 11C11.3731 11 11 11.3731 11 11.8333C11 12.2936 11.3731 12.6667 11.8333 12.6667Z" fill="#1D1761" stroke="#1D1761" stroke-width="2" stroke-linecap="round" stroke-linejoin="round"/>
<path d="M20.1663 21.0002C20.6266 21.0002 20.9997 20.6271 20.9997 20.1668C20.9997 19.7066 20.6266 19.3335 20.1663 19.3335C19.7061 19.3335 19.333 19.7066 19.333 20.1668C19.333 20.6271 19.7061 21.0002 20.1663 21.0002Z" fill="#1D1761" stroke="#1D1761" stroke-width="2" stroke-linecap="round" stroke-linejoin="round"/>
<path d="M1 16C1 17.9698 1.38799 19.9204 2.14181 21.7403C2.89563 23.5601 4.00052 25.2137 5.3934 26.6066C6.78628 27.9995 8.43986 29.1044 10.2597 29.8582C12.0796 30.612 14.0302 31 16 31C17.9698 31 19.9204 30.612 21.7403 29.8582C23.5601 29.1044 25.2137 27.9995 26.6066 26.6066C27.9995 25.2137 29.1044 23.5601 29.8582 21.7403C30.612 19.9204 31 17.9698 31 16C31 14.0302 30.612 12.0796 29.8582 10.2597C29.1044 8.43986 27.9995 6.78628 26.6066 5.3934C25.2137 4.00052 23.5601 2.89563 21.7403 2.14181C19.9204 1.38799 17.9698 1 16 1C14.0302 1 12.0796 1.38799 10.2597 2.14181C8.43986 2.89563 6.78628 4.00052 5.3934 5.3934C4.00052 6.78628 2.89563 8.43986 2.14181 10.2597C1.38799 12.0796 1 14.0302 1 16Z" stroke="#1D1761" stroke-width="2" stroke-linecap="round" stroke-linejoin="round"/>
</svg>
