<svg width="94" height="18" viewBox="0 0 94 18" fill="none" xmlns="http://www.w3.org/2000/svg">
<path d="M3.04 17.2111L5.18 10.8511L0.0200001 7.39109H6.34L8.6 0.571093L10.9 7.39109H17.18L12.02 10.8511L14.2 17.2111L8.6 13.1511L3.04 17.2111Z" fill="#0A0822"/>
<path d="M22.2392 17.2111L24.3792 10.8511L19.2192 7.39109H25.5392L27.7992 0.571093L30.0992 7.39109H36.3792L31.2192 10.8511L33.3992 17.2111L27.7992 13.1511L22.2392 17.2111ZM41.4384 17.2111L43.5784 10.8511L38.4184 7.39109H44.7384L46.9984 0.571093L49.2984 7.39109H55.5784L50.4184 10.8511L52.5984 17.2111L46.9984 13.1511L41.4384 17.2111ZM60.6377 17.2111L62.7777 10.8511L57.6177 7.39109H63.9377L66.1977 0.571093L68.4977 7.39109H74.7777L69.6177 10.8511L71.7977 17.2111L66.1977 13.1511L60.6377 17.2111ZM79.8369 17.2111L81.9769 10.8511L76.8169 7.39109H83.1369L85.3969 0.571093L87.6969 7.39109H93.9769L88.8169 10.8511L90.9969 17.2111L85.3969 13.1511L79.8369 17.2111Z" fill="#EBEBEB"/>
</svg>
