<svg width="94" height="17" viewBox="0 0 94 17" fill="none" xmlns="http://www.w3.org/2000/svg">
<path d="M3.04 16.7272L5.18 10.3672L0.0200001 6.90721H6.34L8.6 0.0872059L10.9 6.90721H17.18L12.02 10.3672L14.2 16.7272L8.6 12.6672L3.04 16.7272ZM22.2392 16.7272L24.3792 10.3672L19.2192 6.90721H25.5392L27.7992 0.0872059L30.0992 6.90721H36.3792L31.2192 10.3672L33.3992 16.7272L27.7992 12.6672L22.2392 16.7272Z" fill="#0A0822"/>
<path d="M41.4384 16.7272L43.5784 10.3672L38.4184 6.90721H44.7384L46.9984 0.0872059L49.2984 6.90721H55.5784L50.4184 10.3672L52.5984 16.7272L46.9984 12.6672L41.4384 16.7272ZM60.6377 16.7272L62.7777 10.3672L57.6177 6.90721H63.9377L66.1977 0.0872059L68.4977 6.90721H74.7777L69.6177 10.3672L71.7977 16.7272L66.1977 12.6672L60.6377 16.7272ZM79.8369 16.7272L81.9769 10.3672L76.8169 6.90721H83.1369L85.3969 0.0872059L87.6969 6.90721H93.9769L88.8169 10.3672L90.9969 16.7272L85.3969 12.6672L79.8369 16.7272Z" fill="#EBEBEB"/>
</svg>
