<svg width="94" height="17" viewBox="0 0 94 17" fill="none" xmlns="http://www.w3.org/2000/svg">
<path d="M3.04 16.7594L5.18 10.3994L0.0200001 6.93943H6.34L8.6 0.119432L10.9 6.93943H17.18L12.02 10.3994L14.2 16.7594L8.6 12.6994L3.04 16.7594ZM22.2392 16.7594L24.3792 10.3994L19.2192 6.93943H25.5392L27.7992 0.119432L30.0992 6.93943H36.3792L31.2192 10.3994L33.3992 16.7594L27.7992 12.6994L22.2392 16.7594ZM41.4384 16.7594L43.5784 10.3994L38.4184 6.93943H44.7384L46.9984 0.119432L49.2984 6.93943H55.5784L50.4184 10.3994L52.5984 16.7594L46.9984 12.6994L41.4384 16.7594ZM60.6377 16.7594L62.7777 10.3994L57.6177 6.93943H63.9377L66.1977 0.119432L68.4977 6.93943H74.7777L69.6177 10.3994L71.7977 16.7594L66.1977 12.6994L60.6377 16.7594Z" fill="#0A0822"/>
<path d="M79.8369 16.7594L81.9769 10.3994L76.8169 6.93943H83.1369L85.3969 0.119432L87.6969 6.93943H93.9769L88.8169 10.3994L90.9969 16.7594L85.3969 12.6994L79.8369 16.7594Z" fill="#EBEBEB"/>
</svg>
