<svg width="94" height="18" viewBox="0 0 94 18" fill="none" xmlns="http://www.w3.org/2000/svg">
<path d="M3.04 17.2433L5.18 10.8833L0.0200001 7.42332H6.34L8.6 0.603319L10.9 7.42332H17.18L12.02 10.8833L14.2 17.2433L8.6 13.1833L3.04 17.2433ZM22.2392 17.2433L24.3792 10.8833L19.2192 7.42332H25.5392L27.7992 0.603319L30.0992 7.42332H36.3792L31.2192 10.8833L33.3992 17.2433L27.7992 13.1833L22.2392 17.2433ZM41.4384 17.2433L43.5784 10.8833L38.4184 7.42332H44.7384L46.9984 0.603319L49.2984 7.42332H55.5784L50.4184 10.8833L52.5984 17.2433L46.9984 13.1833L41.4384 17.2433Z" fill="#0A0822"/>
<path d="M60.6377 17.2433L62.7777 10.8833L57.6177 7.42332H63.9377L66.1977 0.603319L68.4977 7.42332H74.7777L69.6177 10.8833L71.7977 17.2433L66.1977 13.1833L60.6377 17.2433ZM79.8369 17.2433L81.9769 10.8833L76.8169 7.42332H83.1369L85.3969 0.603319L87.6969 7.42332H93.9769L88.8169 10.8833L90.9969 17.2433L85.3969 13.1833L79.8369 17.2433Z" fill="#EBEBEB"/>
</svg>
