<svg width="57" height="25" viewBox="0 0 57 25" fill="none" xmlns="http://www.w3.org/2000/svg">
<rect x="0.25" y="0.25" width="56.5" height="24.5" rx="4.75" fill="white" stroke="#E8E8EF" stroke-width="0.5"/>
<path d="M16.7098 11.6286C16.7098 12.185 16.7098 12.5954 16.7098 13.015C16.7098 13.4437 16.7098 13.8634 16.7098 14.292C16.7098 14.9214 16.5845 15.5872 17.3005 16.1072C16.5488 16.1072 15.9312 16.1072 15.2421 16.1072C15.967 15.2406 15.6001 14.2373 15.6627 13.2978C15.7075 12.6776 15.6717 12.0482 15.6717 11.4279C15.6717 10.6617 15.8059 9.86812 15.1168 9.25698C15.1437 9.22961 15.1616 9.20225 15.1884 9.17488C15.8596 9.17488 16.5308 9.16577 17.2021 9.18401C17.3721 9.19313 17.4527 9.39381 17.5511 9.5215C18.4998 10.7073 19.4484 11.9022 20.397 13.0971C20.4865 13.2065 20.5492 13.3616 20.7551 13.3981C20.7551 12.2488 20.7551 11.1178 20.7551 9.97758C20.7551 9.67657 20.4507 9.50327 20.3792 9.18401C20.9967 9.18401 21.6052 9.18401 22.2049 9.18401C22.2138 9.21138 22.2407 9.24786 22.2317 9.25698C21.7574 9.71306 21.7842 10.3059 21.7932 10.8988C21.811 12.5407 21.8022 14.1826 21.7932 15.8244C21.7932 16.3079 21.7395 16.3444 21.2741 16.2441C20.5403 16.0889 19.9675 15.6968 19.5111 15.0947C18.7056 14.0548 17.8822 13.0424 17.0678 12.0117C16.9873 11.9205 16.8888 11.8292 16.7098 11.6286Z" fill="#ED1C24"/>
<path d="M29.9747 16.1864C29.232 16.1864 28.5871 16.1864 27.9423 16.1864C28.8412 14.6111 29.2516 12.8744 29.9062 11.2326C30.0529 10.8624 30.1701 10.4923 30.3069 10.1222C30.4339 9.74261 30.4632 9.37248 30.004 9.00237C30.9616 9.00237 31.7922 8.99288 32.6227 9.01187C32.8768 9.02135 32.8572 9.27759 32.9256 9.44841C33.6194 11.2231 34.3132 13.0072 34.9971 14.7913C35.1828 15.2848 35.4368 15.7309 35.8473 16.1769C34.7431 16.1769 33.7074 16.1769 32.6618 16.1769C32.9843 15.7024 32.9061 14.5731 32.5249 14.127C32.4566 14.0416 32.3686 14.0226 32.271 14.0226C31.6553 14.0226 31.03 14.0226 30.4144 14.0132C30.2385 14.0132 30.1407 14.0891 30.092 14.2409C29.9649 14.6111 29.8281 14.9812 29.701 15.3608C29.5838 15.6549 29.7499 15.8922 29.9747 16.1864ZM31.3231 10.834C31.0496 11.242 30.9714 11.6311 30.854 11.9918C30.4926 13.0737 30.5023 13.0737 31.6944 13.0356C31.7238 13.0356 31.7629 13.0356 31.7921 13.0356C32.0364 13.0452 32.1146 12.9313 32.0364 12.713C31.8019 12.1151 31.5771 11.5173 31.3231 10.834Z" fill="#005AAB"/>
<path d="M25.2777 13.1245C26.1148 12.4799 26.2856 11.7026 26.055 10.7926C25.9525 10.385 25.6877 10.129 25.3034 10.0437C25.1325 10.0058 25.0301 10.0627 25.0301 10.2807C25.0386 11.8922 25.0301 13.5037 25.0471 15.1152C25.0471 15.4944 25.1753 15.8452 25.4144 16.1864C24.5774 16.1864 23.7915 16.1864 22.9544 16.1864C23.279 15.7409 23.3047 15.2574 23.3047 14.774C23.279 13.153 23.3474 11.5225 23.2705 9.90152C23.2533 9.5887 23.1679 9.32327 22.9117 9.01993C23.2278 9.01993 23.4755 9.01045 23.7146 9.01993C24.6542 9.05785 25.5938 8.90618 26.5248 9.10525C27.3704 9.29484 27.8744 9.911 27.9341 10.7547C28.0025 11.7879 27.6352 12.4894 26.8152 12.8591C26.371 13.0581 25.9013 13.1435 25.2777 13.1245Z" fill="#005AAB"/>
<path d="M8 9.22011C8.72199 9.22011 9.40648 9.22918 10.091 9.22011C10.3441 9.22011 10.3441 9.41057 10.4004 9.55569C10.9348 10.9796 11.4693 12.4127 12.0132 13.8367C12.06 13.9727 12.0788 14.1268 12.2663 14.2448C12.632 13.3197 12.9789 12.4127 13.3352 11.5057C13.4665 11.1701 13.579 10.8164 13.7291 10.4899C13.8885 10.1543 13.9447 9.83686 13.7103 9.51034C13.579 9.32895 13.6072 9.23825 13.8791 9.21105C15.3043 9.11127 15.3137 9.11127 14.8261 10.4264C14.1416 12.2948 13.4384 14.1631 12.7539 16.0315C12.6695 16.2583 12.5757 16.3308 12.3132 16.2673C11.2724 15.9952 10.5129 15.4692 10.1191 14.4353C9.46273 12.7029 8.73137 10.9978 8 9.22011Z" fill="#ED1C24"/>
<path d="M35.1639 9.01095C36.0468 9.01095 36.8303 9.02042 37.6237 9.00146C37.8519 9.00146 37.9412 9.11524 38.0404 9.26693C38.4867 9.94953 38.9429 10.6227 39.3793 11.3053C39.5578 11.5802 39.677 11.5897 39.8555 11.3148C40.0835 10.9735 40.3514 10.6416 40.5894 10.3003C40.9763 9.74096 40.9763 9.57031 40.6588 9.00146C41.3729 9.00146 42.0871 9.00146 42.7913 9.00146C42.8509 9.00146 42.9203 9.01095 43.0691 9.02991C42.6921 9.54187 42.3549 10.0159 42.0177 10.4899C41.482 11.2294 40.9366 11.9595 40.401 12.699C40.3316 12.8033 40.2224 12.917 40.2323 13.0308C40.262 14.0831 39.9745 15.1735 40.639 16.1879C39.677 16.1879 38.7446 16.1879 37.7726 16.1879C38.3577 15.1829 38.0205 14.1116 38.0999 13.0877C38.1098 13.0023 38.0503 12.9076 38.0007 12.8317C37.2072 11.713 36.4236 10.6037 35.6301 9.50395C35.5211 9.34277 35.3723 9.21953 35.1639 9.01095Z" fill="#005AAB"/>
<path d="M47.1742 13.0063C46.5778 13.4186 46.1282 13.4186 45.5409 12.9884C45.1738 12.7195 44.8251 12.5223 44.3204 12.5044C43.5496 12.4865 42.999 11.8232 42.8798 10.9538C42.7697 10.201 43.1918 9.46605 43.8892 9.17924C44.7059 8.83867 45.6052 8.99999 46.0731 9.55568C46.6237 10.2099 46.6604 11.16 46.119 11.877C45.9171 12.1369 45.9722 12.2714 46.1925 12.4506C46.4677 12.6837 46.7796 12.8719 47.1742 13.0063ZM43.8342 10.6581C43.8525 10.9628 43.9075 11.2944 44.0911 11.5992C44.2654 11.886 44.5039 12.0831 44.8711 12.0383C45.2564 11.9846 45.3849 11.7067 45.4675 11.393C45.5501 11.0793 45.5133 10.7656 45.4492 10.4609C45.3298 9.84248 44.9811 9.49293 44.5315 9.51982C44.1186 9.54672 43.8342 9.97691 43.8342 10.6581Z" fill="#ED1C24"/>
<path d="M47.1431 9.00879C47.6602 9.00879 48.2297 8.98635 48.7907 9.02001C49.1588 9.04245 49.4392 9.30049 49.5443 9.74925C49.6496 10.198 49.597 10.6692 49.2639 10.9497C49.0098 11.1516 49.0711 11.3311 49.1938 11.5667C49.4655 12.094 49.6671 12.6662 50 13.1486C48.852 13.7432 48.6066 12.6101 48.1947 11.6228C48.0808 12.2399 48.0808 12.7111 48.2385 13.2271C47.8617 13.3169 47.4936 13.2496 47.1255 13.2608C47.2395 11.836 47.2132 10.4448 47.1431 9.00879ZM48.0984 10.3439C48.186 10.557 47.9756 10.9721 48.2649 10.9833C48.5277 10.9946 48.6592 10.6243 48.6504 10.2878C48.6504 9.96241 48.5453 9.61462 48.2736 9.6595C47.9669 9.70437 48.1947 10.1083 48.0984 10.3439Z" fill="#ED1C24"/>
</svg>
